<!DOCTYPE svg PUBLIC "-//W3C//DTD SVG 20010904//EN" "http://www.w3.org/TR/2001/REC-SVG-20010904/DTD/svg10.dtd">
<svg version="1.0" xmlns="http://www.w3.org/2000/svg" width="300px" height="400px" viewBox="0 0 3000 4000" preserveAspectRatio="xMidYMid meet">
<g id="layer101" fill="#000403" stroke="none">
 <path d="M1240 3989 c-112 -14 -250 -43 -250 -51 0 -4 -8 -8 -19 -8 -22 0 -124 -31 -131 -40 -3 -4 -33 -17 -67 -29 -35 -13 -63 -27 -63 -31 0 -4 -25 -17 -55 -30 -30 -13 -55 -27 -55 -31 0 -4 -11 -14 -24 -21 -73 -40 -245 -199 -272 -250 -8 -16 -18 -28 -23 -28 -5 0 -16 -16 -25 -35 -9 -19 -20 -35 -25 -35 -4 0 -18 -24 -32 -52 -13 -29 -27 -54 -30 -56 -4 -2 -17 -31 -30 -65 -12 -34 -26 -64 -31 -67 -4 -3 -15 -37 -25 -75 -10 -39 -21 -72 -24 -75 -4 -3 -17 -61 -29 -130 -28 -153 -40 -570 -21 -716 15 -115 42 -258 51 -264 4 -3 15 -39 24 -80 10 -41 21 -77 25 -80 3 -3 17 -39 30 -80 13 -41 27 -77 31 -80 4 -3 17 -35 29 -73 13 -37 27 -67 32 -67 5 0 9 -5 9 -12 0 -12 90 -199 100 -208 3 -3 14 -25 25 -50 10 -25 24 -50 31 -55 6 -6 22 -34 34 -63 12 -28 26 -52 30 -52 4 0 13 -14 20 -30 7 -17 18 -34 24 -38 6 -4 20 -25 31 -47 10 -22 25 -47 32 -55 26 -30 103 -150 103 -160 0 -6 7 -13 15 -16 8 -4 15 -12 15 -19 0 -6 10 -23 23 -37 27 -30 67 -85 67 -93 0 -3 7 -13 16 -23 8 -9 34 -42 57 -72 23 -30 44 -57 47 -60 3 -3 17 -21 30 -40 39 -55 53 -72 88 -105 17 -17 32 -37 32 -43 0 -7 5 -12 10 -12 6 0 22 -11 36 -25 44 -44 148 -94 230 -111 153 -32 406 -3 461 52 8 7 20 14 27 14 13 0 135 117 176 169 14 18 35 43 48 57 12 14 22 27 22 30 0 3 20 31 45 62 25 31 53 67 63 80 9 13 29 37 43 55 14 18 34 47 45 66 10 19 28 44 39 56 33 37 55 68 72 103 8 17 18 32 22 32 4 0 18 20 30 45 12 25 26 45 31 45 5 0 12 10 15 23 4 12 17 36 29 52 13 17 45 71 71 120 27 50 52 92 56 95 4 3 15 25 25 50 9 25 22 52 29 60 6 8 20 35 30 60 11 25 25 50 31 57 6 6 19 36 28 67 10 31 21 56 25 56 4 0 18 35 31 78 13 42 27 79 31 82 4 3 15 34 24 70 9 35 22 76 29 90 8 14 22 70 32 125 10 55 21 102 25 105 15 11 29 197 29 396 0 200 -11 355 -29 399 -5 11 -18 61 -29 110 -23 103 -68 233 -88 256 -8 8 -14 20 -14 26 0 14 -31 72 -47 91 -7 7 -13 18 -13 23 0 8 -37 61 -100 143 -32 41 -161 163 -214 201 -31 22 -65 47 -76 56 -10 8 -38 24 -62 35 -24 10 -49 24 -55 30 -7 7 -36 20 -65 30 -29 9 -55 20 -58 23 -3 4 -34 15 -70 26 -36 10 -69 22 -75 26 -14 10 -103 27 -235 44 -124 16 -420 18 -530 4z"/>
 </g>
<g id="layer102" fill="#095533" stroke="none">
 <path d="M1240 3989 c-105 -13 -250 -42 -250 -50 0 -3 -18 -9 -41 -13 -22 -3 -59 -15 -82 -26 -23 -10 -67 -29 -97 -40 -30 -12 -57 -25 -60 -30 -3 -4 -26 -17 -51 -28 -25 -12 -52 -28 -59 -37 -7 -8 -17 -15 -22 -15 -16 0 -88 -61 -182 -156 -97 -96 -136 -143 -148 -175 -4 -10 -12 -19 -17 -19 -5 0 -19 -25 -32 -55 -12 -30 -26 -55 -30 -55 -3 0 -17 -28 -30 -62 -12 -35 -26 -65 -31 -68 -4 -3 -15 -37 -25 -75 -10 -39 -21 -72 -24 -75 -4 -3 -17 -61 -29 -130 -28 -152 -40 -570 -21 -716 14 -111 41 -246 51 -259 4 -5 15 -44 25 -85 10 -41 21 -77 24 -80 4 -3 17 -39 30 -80 13 -41 27 -77 31 -80 4 -3 17 -35 29 -73 13 -37 27 -67 32 -67 5 0 9 -5 9 -12 0 -12 90 -199 100 -208 3 -3 14 -25 25 -50 10 -25 27 -53 37 -63 10 -10 18 -23 18 -30 0 -13 57 -109 82 -138 7 -8 22 -33 33 -55 10 -21 25 -46 32 -54 26 -30 103 -150 103 -160 0 -6 7 -13 15 -16 8 -4 15 -12 15 -19 0 -6 10 -23 23 -37 27 -30 67 -85 67 -93 0 -3 7 -13 16 -23 8 -9 34 -42 57 -72 23 -30 44 -57 47 -60 3 -3 17 -21 30 -40 39 -55 53 -72 88 -105 17 -17 32 -37 32 -43 0 -7 5 -12 10 -12 6 0 22 -11 36 -25 42 -42 147 -94 223 -110 91 -19 257 -19 338 0 118 28 235 110 333 234 14 18 35 43 48 57 12 14 22 27 22 30 0 3 20 31 45 62 25 31 53 67 63 80 9 13 29 37 43 55 14 18 34 47 45 66 10 19 28 44 39 56 33 37 55 68 72 103 8 17 18 32 22 32 4 0 18 20 30 45 12 25 26 45 31 45 5 0 12 10 16 23 3 12 19 41 35 65 16 24 48 78 71 120 23 42 45 79 49 82 4 3 15 25 25 50 9 25 22 52 29 60 6 8 20 35 30 60 11 25 25 50 31 57 6 6 19 36 28 67 10 31 21 56 25 56 4 0 18 35 31 78 13 42 27 79 31 82 4 3 15 34 24 70 9 35 22 76 29 90 8 14 22 70 32 125 10 55 21 102 25 105 15 11 29 206 29 403 0 194 -12 348 -29 392 -5 11 -18 61 -29 110 -23 103 -68 233 -88 256 -8 8 -14 20 -14 26 0 14 -31 72 -47 91 -7 7 -13 18 -13 23 0 8 -37 61 -100 143 -31 41 -162 163 -215 201 -31 22 -64 47 -75 56 -10 8 -38 24 -62 35 -24 10 -49 24 -55 30 -7 7 -36 20 -65 30 -29 9 -55 20 -58 23 -3 4 -34 15 -70 26 -36 10 -69 22 -75 26 -14 10 -103 27 -235 44 -124 16 -420 18 -530 4z m220 -664 c16 -9 37 -29 45 -45 9 -17 20 -30 26 -30 6 0 6 -6 1 -17 -5 -10 -12 -34 -16 -54 -10 -55 -66 -99 -127 -99 -40 0 -91 33 -115 75 -10 16 -22 33 -28 37 -7 5 -7 8 2 8 6 0 12 9 12 20 0 30 26 75 56 99 32 25 101 28 144 6z m1003 -129 c47 -19 69 -49 74 -100 10 -89 -36 -146 -118 -146 -61 0 -89 13 -117 54 -43 63 -18 156 53 191 38 18 67 19 108 1z m-828 -386 c133 -35 243 -142 285 -278 33 -106 22 -210 -33 -317 -33 -65 -127 -150 -194 -175 -126 -47 -200 -47 -326 0 -114 43 -214 172 -238 307 -35 196 95 404 286 459 51 15 168 17 220 4z m-1137 -367 c33 -21 62 -73 62 -113 0 -46 -33 -99 -70 -113 -22 -8 -30 -18 -31 -37 -2 -23 -2 -23 -6 -2 -3 16 -11 22 -29 22 -30 0 -73 21 -95 46 -97 112 44 276 169 197z m2167 -236 c87 -87 31 -227 -91 -227 -34 0 -51 7 -78 31 -99 86 -44 229 88 229 41 0 53 -5 81 -33z m-515 -285 c19 -9 37 -22 39 -27 2 -6 7 -20 12 -33 24 -62 -1 -140 -53 -168 -33 -19 -97 -16 -143 6 -22 11 -37 19 -32 20 4 0 1 13 -8 30 -60 116 66 233 185 172z m-1017 -412 c15 -17 28 -43 28 -58 1 -15 2 -38 3 -52 2 -40 -61 -100 -111 -107 -81 -11 -147 46 -147 126 0 61 4 71 37 99 56 49 142 45 190 -8z m375 -197 c-16 -2 -40 -2 -55 0 -16 2 -3 4 27 4 30 0 43 -2 28 -4z m105 0 c-13 -2 -35 -2 -50 0 -16 2 -5 4 22 4 28 0 40 -2 28 -4z"/>
 </g>
<g id="layer103" fill="#0c7647" stroke="none">
 <path d="M1240 3989 c-105 -13 -250 -42 -250 -50 0 -3 -18 -9 -41 -13 -22 -3 -59 -15 -82 -26 -23 -10 -67 -29 -97 -40 -30 -12 -57 -25 -60 -30 -3 -4 -26 -17 -51 -28 -25 -12 -52 -28 -59 -37 -7 -8 -17 -15 -22 -15 -16 0 -88 -61 -182 -156 -97 -96 -136 -143 -148 -175 -4 -10 -12 -19 -17 -19 -5 0 -19 -25 -32 -55 -12 -30 -26 -55 -30 -55 -3 0 -17 -28 -30 -62 -12 -35 -26 -65 -31 -68 -4 -3 -15 -37 -25 -75 -10 -39 -21 -72 -24 -75 -4 -3 -17 -61 -29 -130 -28 -152 -40 -570 -21 -716 14 -111 41 -246 51 -259 4 -5 15 -44 25 -85 10 -41 21 -77 24 -80 4 -3 17 -39 30 -80 13 -41 27 -77 31 -80 4 -3 17 -35 29 -73 13 -37 27 -67 32 -67 5 0 9 -5 9 -12 0 -12 90 -199 100 -208 3 -3 14 -25 25 -50 10 -25 27 -53 37 -63 10 -10 18 -23 18 -30 0 -13 57 -109 82 -138 7 -8 22 -33 33 -55 10 -21 25 -46 32 -54 26 -30 103 -150 103 -160 0 -6 7 -13 15 -16 8 -4 15 -12 15 -19 0 -6 10 -23 23 -37 27 -30 67 -85 67 -93 0 -3 7 -13 16 -23 8 -9 34 -42 57 -72 23 -30 44 -57 47 -60 3 -3 17 -21 30 -40 39 -55 53 -72 88 -105 17 -17 32 -37 32 -43 0 -7 5 -12 10 -12 6 0 22 -11 36 -25 42 -42 147 -94 223 -110 91 -19 257 -19 338 0 118 28 235 110 333 234 14 18 35 43 48 57 12 14 22 27 22 30 0 3 20 31 45 62 25 31 53 67 63 80 9 13 29 37 43 55 14 18 34 47 45 66 10 19 28 44 39 56 33 37 55 68 72 103 8 17 18 32 22 32 4 0 18 20 30 45 12 25 26 45 31 45 5 0 12 10 16 23 3 12 19 41 35 65 16 24 48 78 71 120 23 42 45 79 49 82 4 3 15 25 25 50 9 25 22 52 29 60 6 8 20 35 30 60 11 25 25 50 31 57 6 6 19 36 28 67 10 31 21 56 25 56 4 0 18 35 31 78 13 42 27 79 31 82 4 3 15 34 24 70 9 35 22 76 29 90 8 14 22 70 32 125 10 55 21 102 25 105 15 11 29 206 29 403 0 194 -12 348 -29 392 -5 11 -18 61 -29 110 -23 103 -68 233 -88 256 -8 8 -14 20 -14 26 0 14 -31 72 -47 91 -7 7 -13 18 -13 23 0 8 -37 61 -100 143 -31 41 -162 163 -215 201 -31 22 -64 47 -75 56 -10 8 -38 24 -62 35 -24 10 -49 24 -55 30 -7 7 -36 20 -65 30 -29 9 -55 20 -58 23 -3 4 -34 15 -70 26 -36 10 -69 22 -75 26 -14 10 -103 27 -235 44 -124 16 -420 18 -530 4z m509 -491 c199 -38 374 -127 524 -265 34 -32 53 -43 65 -38 67 27 149 11 183 -36 34 -49 36 -99 4 -157 l-27 -49 30 -59 c78 -155 120 -373 107 -552 l-7 -94 35 -32 c61 -56 67 -141 13 -199 -25 -27 -88 -50 -112 -40 -10 3 -21 -10 -36 -43 -37 -87 -130 -216 -213 -299 -160 -160 -392 -281 -605 -315 -144 -22 -374 -8 -486 30 l-56 20 -32 -34 c-59 -63 -144 -66 -202 -5 -26 28 -29 37 -29 101 -1 68 -2 72 -31 92 -190 131 -384 420 -419 624 -5 29 -12 42 -23 42 -10 0 -36 9 -59 20 -111 50 -109 192 4 244 41 20 42 21 53 90 35 218 90 359 198 511 162 229 414 392 688 444 173 33 262 33 433 -1z"/>
 <path d="M1334 3491 c-456 -83 -827 -469 -885 -920 -7 -56 -8 -96 -3 -98 78 -26 118 -74 118 -140 0 -57 -21 -93 -69 -119 -19 -10 -35 -25 -35 -33 0 -29 64 -200 106 -281 70 -137 196 -281 322 -369 l32 -22 30 21 c43 30 99 36 143 15 46 -22 68 -56 76 -118 l6 -49 85 -26 c77 -24 101 -26 265 -26 170 -1 186 1 279 28 199 58 362 152 501 291 81 80 178 216 209 290 l17 39 -35 31 c-58 49 -72 114 -36 172 25 41 57 62 111 71 l44 7 5 80 c12 184 -22 372 -97 536 l-35 77 -52 -5 c-60 -6 -101 10 -135 53 -25 32 -29 120 -6 150 8 10 15 24 15 29 0 19 -147 135 -237 187 -166 96 -307 136 -508 143 -99 4 -154 0 -231 -14z m109 -150 c28 -11 77 -60 77 -77 0 -7 30 -14 78 -18 318 -28 596 -236 710 -534 42 -107 56 -209 48 -352 -8 -164 -43 -274 -127 -400 -41 -62 -41 -64 -25 -91 66 -112 -79 -248 -192 -179 l-33 20 -42 -24 c-120 -69 -240 -98 -407 -98 -183 0 -294 30 -439 120 -168 104 -300 274 -361 467 -34 110 -39 306 -11 428 57 246 226 455 459 567 67 31 73 37 83 75 13 47 24 62 64 87 33 20 80 23 118 9z"/>
 <path d="M1530 3205 c0 -69 -63 -125 -142 -125 -39 0 -54 6 -83 31 -19 17 -38 42 -41 55 -3 13 -8 24 -11 24 -3 0 -44 -20 -91 -45 -146 -75 -255 -177 -340 -319 -55 -92 -76 -151 -97 -271 -59 -341 96 -676 394 -850 148 -87 305 -119 505 -103 100 8 220 45 301 92 l43 26 -14 40 c-43 124 93 233 202 163 19 -12 23 -11 46 19 90 121 148 304 148 467 0 331 -190 622 -495 758 -74 33 -207 63 -281 63 -40 0 -44 -2 -44 -25z m104 -391 c113 -29 223 -122 274 -232 24 -51 27 -69 27 -167 0 -102 -2 -115 -31 -176 -41 -86 -118 -162 -203 -202 -58 -26 -78 -30 -161 -31 -126 -1 -198 25 -282 102 -96 89 -138 182 -138 308 0 180 121 343 293 394 78 23 142 24 221 4z"/>
 </g>
<g id="layer104" fill="#13c274" stroke="none">
 <path d="M1240 3989 c-105 -13 -250 -42 -250 -50 0 -3 -18 -9 -41 -13 -22 -3 -59 -15 -82 -26 -23 -10 -67 -29 -97 -40 -30 -12 -57 -25 -60 -30 -3 -4 -26 -17 -51 -28 -25 -12 -52 -28 -59 -37 -7 -8 -17 -15 -22 -15 -16 0 -88 -61 -182 -156 -97 -96 -136 -143 -148 -175 -4 -10 -12 -19 -17 -19 -5 0 -19 -25 -32 -55 -12 -30 -26 -55 -30 -55 -3 0 -17 -28 -30 -62 -12 -35 -26 -65 -31 -68 -4 -3 -15 -37 -25 -75 -10 -39 -21 -72 -24 -75 -4 -3 -17 -61 -29 -130 -28 -152 -40 -570 -21 -716 14 -111 41 -246 51 -259 4 -5 15 -44 25 -85 10 -41 21 -77 24 -80 4 -3 17 -39 30 -80 13 -41 27 -77 31 -80 4 -3 17 -35 29 -73 13 -37 27 -67 32 -67 5 0 9 -5 9 -12 0 -12 90 -199 100 -208 3 -3 14 -25 25 -50 10 -25 27 -53 37 -63 10 -10 18 -23 18 -30 0 -13 57 -109 82 -138 7 -8 22 -33 33 -55 10 -21 25 -46 32 -54 26 -30 103 -150 103 -160 0 -6 7 -13 15 -16 8 -4 15 -12 15 -19 0 -6 10 -23 23 -37 27 -30 67 -85 67 -93 0 -3 7 -13 16 -23 8 -9 34 -42 57 -72 23 -30 44 -57 47 -60 3 -3 17 -21 30 -40 39 -55 53 -72 88 -105 17 -17 32 -37 32 -43 0 -7 5 -12 10 -12 6 0 22 -11 36 -25 42 -42 147 -94 223 -110 91 -19 257 -19 338 0 118 28 235 110 333 234 14 18 35 43 48 57 12 14 22 27 22 30 0 3 20 31 45 62 25 31 53 67 63 80 9 13 29 37 43 55 14 18 34 47 45 66 10 19 28 44 39 56 33 37 55 68 72 103 8 17 18 32 22 32 4 0 18 20 30 45 12 25 26 45 31 45 5 0 12 10 16 23 3 12 19 41 35 65 16 24 48 78 71 120 23 42 45 79 49 82 4 3 15 25 25 50 9 25 22 52 29 60 6 8 20 35 30 60 11 25 25 50 31 57 6 6 19 36 28 67 10 31 21 56 25 56 4 0 18 35 31 78 13 42 27 79 31 82 4 3 15 34 24 70 9 35 22 76 29 90 8 14 22 70 32 125 10 55 21 102 25 105 15 11 29 206 29 403 0 194 -12 348 -29 392 -5 11 -18 61 -29 110 -23 103 -68 233 -88 256 -8 8 -14 20 -14 26 0 14 -31 72 -47 91 -7 7 -13 18 -13 23 0 8 -37 61 -100 143 -31 41 -162 163 -215 201 -31 22 -64 47 -75 56 -10 8 -38 24 -62 35 -24 10 -49 24 -55 30 -7 7 -36 20 -65 30 -29 9 -55 20 -58 23 -3 4 -34 15 -70 26 -36 10 -69 22 -75 26 -14 10 -103 27 -235 44 -124 16 -420 18 -530 4z m420 -470 c226 -28 442 -126 612 -279 51 -45 60 -50 79 -39 13 6 45 9 77 7 48 -4 60 -10 89 -41 28 -32 33 -44 33 -88 0 -40 -6 -60 -25 -85 l-26 -33 26 -50 c82 -163 108 -279 110 -499 l2 -172 27 -21 c34 -27 56 -70 56 -111 0 -67 -70 -138 -137 -138 -30 0 -35 -5 -73 -77 -142 -273 -425 -492 -725 -562 -146 -34 -401 -29 -544 10 l-74 20 -35 -35 c-75 -76 -189 -52 -227 48 -13 34 -15 51 -6 81 9 33 8 40 -12 56 -12 11 -33 26 -47 33 -45 25 -184 178 -241 266 -63 98 -116 215 -139 309 -16 65 -17 66 -56 74 -63 12 -106 63 -112 129 -5 68 24 116 85 137 40 14 41 15 47 72 16 159 92 368 182 499 237 350 648 540 1054 489z"/>
 <path d="M1334 3490 c-163 -29 -340 -112 -485 -226 -210 -166 -361 -432 -398 -699 -10 -72 -10 -81 6 -92 9 -7 22 -13 28 -13 22 0 76 -67 81 -102 11 -65 -19 -120 -90 -163 -14 -9 -13 -18 13 -100 74 -231 197 -407 379 -544 l53 -40 36 25 c91 61 213 1 219 -109 1 -21 6 -42 10 -46 15 -13 133 -39 241 -52 116 -15 245 -4 386 32 262 66 526 270 663 511 58 101 58 104 20 126 -24 14 -38 33 -49 66 -31 91 30 186 121 186 44 0 52 24 52 160 0 134 -28 282 -77 405 -52 131 -55 134 -102 122 -56 -15 -126 20 -152 77 -23 51 -23 71 0 122 l19 42 -41 39 c-114 108 -279 201 -442 249 -80 24 -109 27 -265 30 -96 1 -198 -1 -226 -6z m136 -159 c14 -10 34 -31 45 -48 19 -29 25 -31 105 -37 93 -8 235 -51 310 -94 107 -62 230 -175 299 -275 184 -270 184 -651 -2 -927 -33 -49 -35 -55 -21 -74 20 -30 18 -105 -6 -143 -37 -62 -134 -83 -194 -44 -29 19 -30 19 -55 2 -49 -35 -167 -79 -250 -95 -163 -31 -361 -13 -494 45 -108 48 -175 95 -273 193 -140 140 -212 290 -234 484 -18 166 10 335 80 472 79 156 236 308 395 381 68 32 74 37 84 74 24 95 134 139 211 86z"/>
 <path d="M1538 3224 c-5 -4 -8 -21 -8 -37 0 -41 -62 -102 -113 -111 -51 -9 -125 26 -147 69 -8 17 -16 32 -17 34 -4 7 -107 -41 -158 -74 -95 -61 -219 -188 -269 -276 -41 -71 -78 -167 -92 -237 -18 -94 -18 -259 0 -354 53 -272 281 -521 560 -607 71 -22 99 -25 236 -25 136 -1 164 2 230 23 76 24 184 73 194 89 3 5 0 25 -6 44 -35 115 74 218 185 174 39 -15 42 -15 59 1 36 37 96 162 123 253 24 82 28 112 27 225 0 111 -4 143 -26 218 -47 157 -110 261 -228 373 -139 133 -276 195 -488 219 -30 4 -58 3 -62 -1z m146 -424 c184 -77 284 -252 256 -449 -19 -134 -109 -255 -238 -318 -52 -26 -66 -28 -172 -28 -106 0 -120 2 -173 28 -114 56 -184 138 -223 260 -30 94 -29 166 4 260 79 223 330 337 546 247z"/>
 </g>

</svg>